<?xml version="1.0" encoding="UTF-8"?>
<svg id="Livello_1" data-name="Livello 1" xmlns="http://www.w3.org/2000/svg" xmlns:xlink="http://www.w3.org/1999/xlink" viewBox="0 0 1335.99 219.49">
  <defs>
    <style>
      .cls-1 {
        fill: url(#Sfumatura_senza_nome_82);
      }

      .cls-2 {
        fill: url(#Sfumatura_senza_nome_93);
      }
    </style>
    <linearGradient id="Sfumatura_senza_nome_93" data-name="Sfumatura senza nome 93" x1="4.39" y1="110.97" x2="904.51" y2="110.97" gradientUnits="userSpaceOnUse">
      <stop offset=".21" stop-color="#01b2da"/>
      <stop offset=".48" stop-color="#04bae1"/>
      <stop offset=".91" stop-color="#0fd2f5"/>
      <stop offset="1" stop-color="#12d8fa"/>
    </linearGradient>
    <linearGradient id="Sfumatura_senza_nome_82" data-name="Sfumatura senza nome 82" x1="831.49" y1="109.7" x2="1335.99" y2="109.7" gradientUnits="userSpaceOnUse">
      <stop offset="0" stop-color="#12d8fa"/>
      <stop offset=".12" stop-color="#14d8f9"/>
      <stop offset=".21" stop-color="#1edbf6"/>
      <stop offset=".29" stop-color="#2ddff1"/>
      <stop offset=".36" stop-color="#43e5ea"/>
      <stop offset=".43" stop-color="#60ece1"/>
      <stop offset=".49" stop-color="#83f5d6"/>
      <stop offset=".54" stop-color="#a6ffcb"/>
    </linearGradient>
  </defs>
  <path class="cls-2" d="M109.68,210.38c-2.77-1.76-3.32-7.89-3.34-11.94-.32-33.3.55-78.7-.15-105.76.05-7.82-2.97-14.42-11.39-16.26-9.13-2.24-19.95-2.37-28.31-7.45C47.33,55.28,28.75,32.91,11.19,16.43,6.42,11.56,1.23,5.99,6.81,3.71c54.13-1.16,184.29-1.78,235.78-.14,22.54,1.57,56.67,55.57,77.74,63.98,17.21,4.64,51.41-45.97,68.43-55.14,18.04-9.52,38.42,24.09,51.82,34.29,23.33,25.05,31.42,28.35,55.59,1.32,26.79-25.42,39.4-49.38,80.79-45.08,14.22.28,27.37-1.27,39.48,5.01,17.75,11.63,31.23,29.57,46.94,43.96,14.67,16.5,26.68,22.08,42.51,3.95,20.58-17.27,35.85-44.34,62.79-51.55,17.98-2.14,38.46-2.46,55.92.47,11.65,2.69,20.4,11.13,28.64,19.48,15.77,17.83,38.48,32.36,48.07,54.29,4.18,11.99,2.73,24.99,3,37.5,1.21,18.8-3.16,36.03-17.65,48.45-17.24,16.25-32.09,33.87-49.63,47.65-10.63,7.04-24.16,6.84-36.56,6.84-51.56,4.2-57.4-18.54-91.37-49.74-18.9-21.53-29.39-17.58-47.73,2.79-18.95,16.45-30.7,37.48-53.24,45.25-17.59,2.89-38.46,2.15-55.75.72-13.46-1.94-23.72-11.62-32.97-21.02-110.17-103.77-63.08-104.41-172.24-.98-10.77,10.02-19.89,23.1-32.83,11.89-38.67-37.36-88.97-95.65-120.27-125.6-25.37-14.36-8.51,55.31-21.06,67.35-5.14,9.36-14.45,17.23-22.28,25.24-9.73,7.59-31.26,36.19-41.01,35.53l-.07-.03ZM559.78,143.77c8.08,3.48,18.02,4.06,26.72,2.27,19.14-3.44,28.05-21.11,26.15-39.66-.9-10.95-6.43-22.04-16.52-27.09-11.85-5.99-27.51-5.87-39.15.3-22.65,12.15-21.65,54.24,2.62,64.1l.17.07ZM774.99,144.68c8.11,3.46,17.99,4.09,26.71,2.29,17.49-3.27,26.76-18.33,26.32-35.63-.03-16.82-9.03-31.07-25.93-34.34-9.76-2.12-21.12-1.25-29.83,3.51-22.71,12.18-21.7,54.15,2.56,64.1l.17.07Z"/>
  <path class="cls-1" d="M831.57,215.16c9.71-14.06,25.58-26.28,37.44-39.07,11.08-10.41,20.85-23.39,35.77-27.23,17.21-4.95,39.78,1.63,56.1-4.17,7.61-6.06-22.27-28.2-26.76-34.46-15.19-17.22-43.88-31.23-17.12-53.6,12.62-12.53,25.89-25.71,38.33-37.89,5.57-5.48,13.06-12.48,19.9-14.32,45.98-3.97,138.51-.9,201.79-.89,13.83.85,17.46,8.06,23.46,20.61,11.96,23.61,27.25,54.33,41,81.39,7.75,14.76,11.71,24.24,18.51,35.08,2.8,2.77,2.18-3.11,2.5-5.42.43-28.08-.38-81.32.07-112.85-.73-18.59,6.55-13.19,16.72-2.83,7.85,7.73,16.91,16.72,25.49,25.21,17.82,17.52,32.91,28.11,30.58,55.08-1.91,37.74,3.94,83.18-2.45,113.52-8.04,8.4-22.05,4.81-33.02,5.68-13.62-.18-28.25,1.36-40.47-5.78-23.79-16.25-41.34-42.24-64.77-59.55-15.71-10.23-36.66-5.76-55.29-6.65-14.4-.57-28.13,4.43-37.84,15.22-9.92,9.74-21.65,21.4-32.07,31.68-9.08,8.36-17.59,19.57-29.25,23.74-55.18,3.33-144.11.71-192.95,1.27-6.12-.81-16.65,1.9-15.69-3.7l.03-.07ZM973.6,76.38c-1.3,5.26,9.71,13.76,15.51,19.82,7.36,7.11,15.33,14.8,22.86,22.06,5.4,5.21,10.57,10.2,15.12,14.58,6.27,5.43,14.4,17.15,22.59,9.06,4.73-4.69,7.83-11.51,11.81-19.03,2.49-4.81,5-9.64,7.49-14.46,3.43-7.63,14.37-24.01,12.03-31.34-.8-3.17-6.37-4.27-10.8-4.26-4.2-.1-9.04-.04-14.4-.06-7.24,0-15.38,0-23.79,0-10.95,0-22.36,0-32.85,0-8.61.34-22.83-1.23-25.54,3.55l-.03.08ZM1179.08,107.61c3.36-5.93-4.11-15.82-7.65-20.92-3.99-5.21-9.35-9.62-15.91-10.61-9.92-1.57-18.34,5.55-23.55,13.7-3.49,5.09-7.42,13.36-5.55,17.02,3.1,6.54,17.02,4.9,23.5,5.24,7.72-.44,24.85,1.66,29.11-4.32l.07-.1ZM1281.91,3.78c-1.53,3.17,6.11,10.97,9.83,14.61,7.84,7.84,16.82,16.76,24.85,24.77,3.77,3.68,7.28,7.52,11.32,9.93,9.65,5.68,7.55-15.68,7.9-22.88,0-3.04.02-6.14-.13-9.16-.59-19.13-10.09-21.27-27.25-20.99-5.66.43-24.47-1.64-26.49,3.64l-.03.08Z"/>
</svg>