<?xml version="1.0" encoding="UTF-8"?>
<svg id="Livello_1" data-name="Livello 1" xmlns="http://www.w3.org/2000/svg" xmlns:xlink="http://www.w3.org/1999/xlink" viewBox="0 0 395.92 218.07">
  <defs>
    <style>
      .cls-1 {
        fill: url(#Sfumatura_senza_nome_66);
      }

      .cls-2 {
        fill: url(#Sfumatura_senza_nome_58);
      }
    </style>
    <linearGradient id="Sfumatura_senza_nome_58" data-name="Sfumatura senza nome 58" x1="107.95" y1="110.03" x2="395.92" y2="110.03" gradientUnits="userSpaceOnUse">
      <stop offset=".25" stop-color="#12d8fa"/>
      <stop offset=".37" stop-color="#15d9f8"/>
      <stop offset=".5" stop-color="#21dcf5"/>
      <stop offset=".62" stop-color="#34e1ee"/>
      <stop offset=".74" stop-color="#50e8e6"/>
      <stop offset=".86" stop-color="#73f1db"/>
      <stop offset=".98" stop-color="#9dfccd"/>
      <stop offset="1" stop-color="#a6ffcb"/>
    </linearGradient>
    <linearGradient id="Sfumatura_senza_nome_66" data-name="Sfumatura senza nome 66" x1="0" y1="108.2" x2="251.87" y2="108.2" gradientUnits="userSpaceOnUse">
      <stop offset="0" stop-color="#1fa2ff"/>
      <stop offset=".35" stop-color="#19b7fc"/>
      <stop offset=".79" stop-color="#12d8fa"/>
    </linearGradient>
  </defs>
  <path class="cls-2" d="M180.01,75.41c1.44-4.81,7.69-10.54,12.25-15.05,10.91-10.65,24.61-24.11,35.98-35.22,4.92-4.81,9.61-9.43,14.34-14,5.79-5.76,10.24-9.29,17.64-9.05,19.58-.2,39.07-.02,59.01-.08,18.97,0,40.34,0,58.02,0,6.01.12,15.49-.34,17.31.89,3.04,1.13.34,6.83-1.82,11.21-1.84,3.77-4.33,8.59-7.06,13.95-6.83,12.84-13.07,26.83-20.55,39.17-4.01,6.72-10.72,6.73-18.01,6.75-7.09.04-14.13,0-21.51.02-17.19,0-38.11,0-54.53,0-7.77.02-12.95-.03-14.62.99-1.9,1.09.37,3.71,5.4,8.74,15.57,15.32,37.53,36.73,51.23,50.19,3.38,3.6,7.79,6.98,9.04,11.71.61,4.45-1.64,7.45-4.19,11.99-2.22,3.65-5.16,8.19-8.41,13.29-8.57,13.17-17.14,27.41-25.99,40.27-4.47,6.59-8.4,6.83-15.36,6.81-7.81,0-15.37.01-23.48,0-43.98-.21-110.46.38-134.35-.21-3.5-.44-2.77-1.79-.33-4.64,13.63-14.03,33.6-32.98,48.12-47.39,5.4-5.51,14.42-13.3,17.31-18.64,3.11-5.73,2.66-12.57,2.85-19.03.05-10.02,0-24.54.03-34.9.12-5.91-.19-12.14,1.65-17.68l.04-.11ZM250.21,145.94c1.98-2.2-7.62-10.16-12.04-14.95-11.52-11.52-28.08-28.1-40.03-40.06-6.01-5.75-10.46-11.17-15.8-14.95-4.85-3.17-3.51,10.17-3.83,12.81.16,14.41-.44,33.73.33,48.31.48,7.54,4.04,9.91,11.77,10.19,4.7.28,11.12.19,18.27.21,10.48-.02,20.72.03,29.77-.03,6.44-.07,10.48-.29,11.53-1.5l.03-.04Z"/>
  <path class="cls-1" d="M195.59,71.93c-5.82,1.64-13.02.9-14.5,7.4-1.41,15.38-.17,41.42-.58,55.89-.13,4.32.31,8.73-2.31,12.26-9.08,10.15-19.78,19.88-30.36,30.74-12.57,12.3-25.94,26.4-38.16,37.74-2.11,1.58-1.8-1.44-1.92-2.87-.03-16.61-.02-77.13-.02-103.6-.02-13.49.04-24.56-.03-30.31.33-5.06-3.27-5.76-7.49-5.96-5.53-.36-14.81-.06-20.85-.36-6.52.06-11.02-2.28-15.4-7.21C49.96,51.67,17.55,19.35,5.5,7.32,1.22,2.7-3.06.06,3.02.42c29.83,1.27,217.58-2.39,248.85,1.24-10.88,16.25-34.65,46.18-46.71,62.77-2.49,3.39-5.32,6.39-9.45,7.47l-.13.04Z"/>
</svg>